{"title":"Beyonce Feat. Sean Paul - Baby Boy VH1HD AVC 1080i AC3 DD2.0-CE","uid":8508742,"size":284758712,"categoryP":"video","categoryS":"music_videos","magnet":"?xt=urn:btih:a7fcd5da5a2ade2e0fcaa608ec92472387a94886&amp;dn=%09Beyonce+Feat.+Sean+Paul+-+Baby+Boy+VH1HD+AVC+1080i+AC3+DD2.0-CE&amp;tr=udp%3A%2F%2Ftracker.openbittorrent.com%3A80&amp;tr=udp%3A%2F%2Fopen.demonii.com%3A1337&amp;tr=udp%3A%2F%2Ftracker.coppersurfer.tk%3A6969&amp;tr=udp%3A%2F%2Fexodus.desync.com%3A6969","seeders":1,"leechers":0,"uploader":".SceNe.","files":1,"time":1369504696,"description":"\nFormat                         : MPEG-TS\n\nFile size                      : 272 MiB\n\nDuration                       : 4mn 8s\n\nOverall bit rate mode          : Variable\n\nOverall bit rate               : 9 165 Kbps\n\n\n\nVideo\n\nID                             : 5408 (0x1520)\n\nMenu ID                        : 1 (0x1)\n\nFormat                         : AVC\n\nFormat/Info                    : Advanced Video Codec\n\nFormat profile                 : &lt;a class=&quot;__cf_email__&quot; href=&quot;/cdn-cgi/l/email-protection&quot; data-cfemail=&quot;bdf0dcd4d3fdf189938d&quot;&gt;[email&amp;#160;protected]&lt;/a&gt;&lt;script cf-hash='f9e31' type=&quot;text/javascript&quot;&gt;\n/* &lt;![CDATA[ */!function(){try{var t=&quot;currentScript&quot;in document?document.currentScript:function(){for(var t=document.getElementsByTagName(&quot;script&quot;),e=t.length;e--;)if(t[e].getAttribute(&quot;cf-hash&quot;))return t[e]}();if(t&amp;&amp;t.previousSibling){var e,r,n,i,c=t.previousSibling,a=c.getAttribute(&quot;data-cfemail&quot;);if(a){for(e=&quot;&quot;,r=parseInt(a.substr(0,2),16),n=2;a.length-n;n+=2)i=parseInt(a.substr(n,2),16)^r,e+=String.fromCharCode(i);e=document.createTextNode(e),c.parentNode.replaceChild(e,c)}}}catch(u){}}();/* ]]&gt; */&lt;/script&gt;\n\nFormat settings, CABAC         : Yes\n\nFormat settings, ReFrames      : 2 frames\n\nCodec ID                       : 27\n\nDuration                       : 4mn 8s\n\nBit rate                       : 8 324 Kbps\n\nWidth                          : 1 920 pixels\n\nHeight                         : 1 080 pixels\n\nDisplay aspect ratio           : 16:9\n\nFrame rate                     : 29.970 fps\n\nColor space                    : YUV\n\nChroma subsampling             : 4:2:0\n\nBit depth                      : 8 bits\n\nScan type                      : MBAFF\n\nBits/(Pixel*Frame)             : 0.134\n\nStream size                    : 247 MiB (91%)\n\nColor primaries                : BT.709\n\nTransfer characteristics       : BT.709\n\nMatrix coefficients            : BT.709\n\n\n\nAudio\n\nID                             : 5409 (0x1521)\n\nMenu ID                        : 1 (0x1)\n\nFormat                         : AC-3\n\nFormat/Info                    : Audio Coding 3\n\nMode extension                 : CM (complete main)\n\nFormat settings, Endianness    : Big\n\nCodec ID                       : 129\n\nDuration                       : 4mn 8s\n\nBit rate mode                  : Constant\n\nBit rate                       : 384 Kbps\n\nChannel(s)                     : 2 channels\n\nChannel positions              : Front: L R\n\nSampling rate                  : 48.0 KHz\n\nBit depth                      : 16 bits\n\nCompression mode               : Lossy\n\nStream size                    : 11.4 MiB (4%)\n\nLanguage                       : English","torrent":{"xt":"urn:btih:a7fcd5da5a2ade2e0fcaa608ec92472387a94886","amp;dn":"%09Beyonce+Feat.+Sean+Paul+-+Baby+Boy+VH1HD+AVC+1080i+AC3+DD2.0-CE","amp;tr":["udp%3A%2F%2Ftracker.openbittorrent.com%3A80","udp%3A%2F%2Fopen.demonii.com%3A1337","udp%3A%2F%2Ftracker.coppersurfer.tk%3A6969","udp%3A%2F%2Fexodus.desync.com%3A6969"],"infoHash":"a7fcd5da5a2ade2e0fcaa608ec92472387a94886","infoHashBuffer":{"type":"Buffer","data":[167,252,213,218,90,42,222,46,15,202,166,8,236,146,71,35,135,169,72,134]},"announce":[],"urlList":[]}}